<?xml version="1.0" standalone="no"?>
<!DOCTYPE svg PUBLIC "-//W3C//DTD SVG 20010904//EN"
 "http://www.w3.org/TR/2001/REC-SVG-20010904/DTD/svg10.dtd">
<svg version="1.0" xmlns="http://www.w3.org/2000/svg"
 width="160.000000pt" height="160.000000pt" viewBox="0 0 160.000000 160.000000"
 preserveAspectRatio="xMidYMid meet">

<g transform="translate(0.000000,160.000000) scale(0.100000,-0.100000)"
fill="#000000" stroke="none">
<path d="M380 1360 c0 -63 3 -80 14 -80 9 0 16 12 18 27 4 39 32 41 48 3 8
-19 20 -30 32 -30 19 0 19 1 1 30 -13 23 -15 32 -5 42 15 15 16 60 0 76 -7 7
-34 12 -60 12 l-48 0 0 -80z m78 51 c21 -13 10 -46 -16 -49 -24 -4 -38 18 -28
43 6 17 24 19 44 6z"/>
<path d="M540 1360 l0 -80 50 0 c39 0 50 4 50 16 0 12 -8 15 -32 12 -28 -2
-34 1 -36 20 -3 19 1 22 32 22 20 0 36 5 36 10 0 6 -16 10 -35 10 -28 0 -35 4
-35 20 0 16 7 20 35 20 24 0 35 5 35 15 0 11 -12 15 -50 15 l-50 0 0 -80z"/>
<path d="M686 1418 c-9 -12 -16 -38 -16 -58 0 -53 23 -80 69 -80 34 0 71 22
71 43 0 13 -23 7 -42 -10 -15 -13 -23 -14 -43 -5 -20 9 -25 19 -25 50 0 58 34
80 71 46 26 -23 43 -14 24 14 -22 31 -87 31 -109 0z"/>
<path d="M840 1360 l0 -80 50 0 c38 0 50 4 50 15 0 10 -11 15 -35 15 -28 0
-35 4 -35 20 0 16 7 20 35 20 19 0 35 5 35 10 0 6 -16 10 -35 10 -28 0 -35 4
-35 20 0 16 7 20 35 20 24 0 35 5 35 15 0 11 -12 15 -50 15 l-50 0 0 -80z"/>
<path d="M980 1360 c0 -64 3 -80 15 -80 12 0 15 16 15 80 0 64 -3 80 -15 80
-12 0 -15 -16 -15 -80z"/>
<path d="M1050 1360 c0 -64 3 -80 15 -80 9 0 15 9 15 25 0 20 5 25 25 25 29 0
65 32 65 58 0 30 -33 52 -78 52 l-42 0 0 -80z m80 45 c18 -21 5 -45 -25 -45
-21 0 -25 5 -25 30 0 23 5 30 19 30 10 0 24 -7 31 -15z"/>
<path d="M1187 1434 c-10 -11 3 -24 24 -24 17 0 19 -7 19 -65 0 -51 3 -65 15
-65 12 0 15 14 15 65 0 63 1 65 25 65 16 0 25 6 25 15 0 12 -13 15 -58 15 -32
0 -62 -3 -65 -6z"/>
<path d="M355 1230 c-4 -7 158 -10 479 -10 317 0 486 3 486 10 0 7 -166 10
-479 10 -309 0 -482 -4 -486 -10z"/>
<path d="M355 1180 c4 -6 177 -10 486 -10 313 0 479 3 479 10 0 7 -169 10
-486 10 -321 0 -483 -3 -479 -10z"/>
<path d="M690 1095 c0 -19 -4 -23 -17 -18 -14 5 -16 3 -6 -7 17 -19 43 -4 43
25 0 14 -4 25 -10 25 -5 0 -10 -11 -10 -25z"/>
<path d="M722 1093 c2 -22 8 -28 28 -28 20 0 26 6 28 28 2 15 -1 27 -7 27 -6
0 -11 -11 -11 -25 0 -14 -4 -25 -10 -25 -5 0 -10 11 -10 25 0 14 -5 25 -11 25
-6 0 -9 -12 -7 -27z"/>
<path d="M790 1090 c0 -25 4 -30 23 -29 12 0 16 3 10 6 -7 2 -13 16 -13 29 0
13 -4 24 -10 24 -5 0 -10 -13 -10 -30z"/>
<path d="M874 1104 c3 -9 6 -22 6 -30 0 -8 5 -14 10 -14 6 0 10 14 10 30 0 21
-5 30 -16 30 -11 0 -14 -5 -10 -16z"/>
<path d="M929 1111 c10 -7 11 -13 2 -30 -7 -11 -8 -21 -3 -21 8 0 32 42 32 55
0 3 -10 5 -22 5 -17 0 -19 -3 -9 -9z"/>
<path d="M291 880 c0 -33 1 -34 11 -12 8 17 8 26 0 34 -9 9 -12 4 -11 -22z"/>
<path d="M334 896 c-3 -8 -1 -23 5 -33 9 -15 10 -13 11 15 0 34 -7 42 -16 18z"/>
<path d="M372 880 c0 -19 2 -27 5 -17 2 9 2 25 0 35 -3 9 -5 1 -5 -18z"/>
<path d="M410 895 c0 -9 7 -18 15 -21 8 -4 15 -11 15 -16 0 -6 -8 -7 -17 -3
-14 5 -15 4 -6 -6 10 -10 16 -9 28 1 15 13 14 15 -7 33 -16 13 -18 17 -5 13 9
-3 17 -1 17 4 0 6 -9 10 -20 10 -11 0 -20 -7 -20 -15z"/>
<path d="M480 880 c0 -26 2 -29 14 -18 8 7 10 15 5 16 -15 6 -10 20 9 25 13 4
11 5 -5 6 -19 1 -23 -4 -23 -29z"/>
<path d="M542 880 c0 -19 2 -27 5 -17 2 9 2 25 0 35 -3 9 -5 1 -5 -18z"/>
<path d="M576 902 c7 -4 14 -18 17 -32 l4 -25 2 27 c0 14 7 29 14 31 6 3 -1 6
-18 6 -16 0 -25 -3 -19 -7z"/>
<path d="M645 900 c-8 -14 3 -30 21 -30 8 0 13 -4 9 -10 -3 -5 -13 -6 -22 -3
-11 4 -14 3 -9 -5 4 -7 13 -12 21 -12 22 0 29 22 12 35 -21 15 -22 29 -1 21 8
-3 12 -2 9 4 -8 13 -32 13 -40 0z"/>
<path d="M1161 896 c-9 -11 -10 -20 -1 -36 15 -28 35 -20 35 15 0 32 -16 42
-34 21z m29 -16 c0 -11 -4 -20 -10 -20 -5 0 -10 9 -10 20 0 11 5 20 10 20 6 0
10 -9 10 -20z"/>
<path d="M1257 904 c-12 -13 -7 -52 7 -57 18 -7 39 17 34 40 -3 18 -29 29 -41
17z m25 -39 c-12 -22 -27 -2 -18 22 5 12 10 13 17 6 7 -7 8 -17 1 -28z"/>
<path d="M1327 904 c-11 -11 -8 -52 3 -59 17 -10 41 16 38 39 -3 21 -28 33
-41 20z m25 -39 c-12 -22 -27 -2 -18 22 5 12 10 13 17 6 7 -7 8 -17 1 -28z"/>
<path d="M310 860 c0 -5 5 -10 10 -10 6 0 10 5 10 10 0 6 -4 10 -10 10 -5 0
-10 -4 -10 -10z"/>
<path d="M290 735 c0 -9 7 -18 15 -21 8 -4 15 -11 15 -16 0 -6 -7 -7 -16 -4
-8 3 -12 2 -9 -4 9 -15 25 -12 32 5 3 9 -3 23 -13 31 -17 14 -17 15 -1 10 9
-3 17 -1 17 4 0 6 -9 10 -20 10 -11 0 -20 -7 -20 -15z"/>
<path d="M353 734 c-8 -20 8 -48 30 -52 18 -4 34 39 22 57 -10 17 -45 13 -52
-5z m42 -15 c0 -7 -8 -15 -17 -17 -18 -3 -25 18 -11 32 10 10 28 1 28 -15z"/>
<path d="M431 729 c-1 -35 23 -56 44 -39 17 14 21 60 5 60 -5 0 -10 -11 -10
-24 0 -38 -18 -40 -29 -4 -9 31 -9 31 -10 7z"/>
<path d="M514 722 c-10 -27 -10 -29 16 -29 26 0 27 2 18 29 -6 15 -13 28 -17
28 -4 0 -11 -13 -17 -28z"/>
<path d="M580 718 c0 -23 3 -29 9 -19 7 11 10 11 16 0 6 -9 10 -8 15 7 10 26
1 44 -21 44 -15 0 -19 -7 -19 -32z m30 12 c0 -5 -4 -10 -10 -10 -5 0 -10 5
-10 10 0 6 5 10 10 10 6 0 10 -4 10 -10z"/>
<path d="M650 715 c0 -26 4 -35 16 -35 13 0 14 3 5 14 -9 11 -9 15 1 19 10 4
10 6 1 6 -19 1 -16 19 5 24 13 4 11 5 -5 6 -20 1 -23 -4 -23 -34z"/>
<path d="M290 630 c0 -30 0 -30 24 -14 28 17 25 44 -5 44 -14 0 -19 -7 -19
-30z m30 10 c0 -5 -4 -10 -10 -10 -5 0 -10 5 -10 10 0 6 5 10 10 10 6 0 10 -4
10 -10z"/>
<path d="M352 628 c2 -22 9 -34 21 -36 9 -2 17 2 17 8 0 6 -4 9 -9 5 -5 -3
-12 -1 -16 5 -3 5 2 10 12 10 15 0 16 2 3 10 -13 9 -13 11 0 20 12 8 11 10 -8
10 -20 0 -23 -4 -20 -32z"/>
<path d="M421 646 c-16 -19 4 -58 27 -54 18 4 30 38 13 38 -6 0 -10 -4 -8 -9
1 -5 -2 -10 -8 -10 -5 -1 -12 8 -13 20 -3 18 0 21 17 16 12 -3 19 -1 15 4 -8
14 -30 11 -43 -5z"/>
<path d="M495 650 c-8 -14 3 -30 21 -30 8 0 13 -4 9 -10 -3 -5 -13 -6 -22 -3
-11 4 -14 3 -9 -5 4 -7 13 -12 21 -12 22 0 29 22 12 35 -21 15 -22 29 -1 21 8
-3 12 -2 9 4 -8 13 -32 13 -40 0z"/>
<path d="M1161 646 c-9 -11 -10 -20 -1 -36 15 -28 35 -20 35 15 0 32 -16 42
-34 21z m29 -16 c0 -11 -4 -20 -10 -20 -5 0 -10 9 -10 20 0 11 5 20 10 20 6 0
10 -9 10 -20z"/>
<path d="M1256 645 c-8 -21 11 -58 27 -52 19 6 15 61 -4 65 -9 2 -19 -4 -23
-13z m34 -15 c0 -11 -4 -20 -10 -20 -5 0 -10 9 -10 20 0 11 5 20 10 20 6 0 10
-9 10 -20z"/>
<path d="M1327 654 c-11 -11 -8 -52 3 -59 17 -10 41 16 38 39 -3 21 -28 33
-41 20z m25 -39 c-12 -22 -27 -2 -18 22 5 12 10 13 17 6 7 -7 8 -17 1 -28z"/>
<path d="M290 468 c0 -23 3 -29 9 -19 7 11 10 11 16 0 6 -9 10 -8 15 7 10 26
1 44 -21 44 -15 0 -19 -7 -19 -32z m30 12 c0 -5 -4 -10 -10 -10 -5 0 -10 5
-10 10 0 6 5 10 10 10 6 0 10 -4 10 -10z"/>
<path d="M357 494 c-12 -12 -8 -41 8 -54 20 -17 47 5 43 34 -3 21 -37 34 -51
20z m40 -20 c8 -20 -8 -36 -26 -25 -15 10 -8 41 9 41 6 0 13 -7 17 -16z"/>
<path d="M431 479 c-1 -35 23 -56 44 -39 17 14 21 60 5 60 -5 0 -10 -11 -10
-24 0 -38 -18 -40 -29 -4 -9 31 -9 31 -10 7z"/>
<path d="M511 468 c0 -25 2 -28 8 -15 6 17 8 17 20 3 20 -24 31 -19 31 14 0
31 -20 43 -20 13 -1 -17 -1 -17 -14 0 -19 25 -26 21 -25 -15z"/>
<path d="M590 464 c0 -28 4 -35 16 -32 40 8 44 68 4 68 -16 0 -20 -6 -20 -36z
m38 3 c2 -10 -3 -17 -12 -17 -10 0 -16 9 -16 21 0 24 23 21 28 -4z"/>
<path d="M292 380 c0 -19 2 -29 5 -22 2 6 11 12 18 12 7 0 16 -6 18 -12 3 -7
5 3 5 22 0 19 -2 27 -5 18 -2 -10 -11 -18 -18 -18 -7 0 -16 8 -18 18 -3 9 -5
1 -5 -18z"/>
<path d="M367 404 c-12 -12 -8 -41 8 -54 20 -17 47 5 43 34 -3 21 -37 34 -51
20z m40 -20 c8 -21 -13 -42 -28 -27 -13 13 -5 43 11 43 6 0 13 -7 17 -16z"/>
<path d="M444 380 c1 -25 6 -36 19 -38 9 -2 17 1 17 7 0 6 -6 11 -14 11 -8 0
-17 12 -19 28 -4 20 -4 18 -3 -8z"/>
<path d="M502 378 c2 -24 9 -34 23 -36 l20 -4 -20 16 -20 15 20 1 c17 0 17 2
5 10 -13 9 -13 11 0 20 12 8 11 10 -8 10 -20 0 -23 -4 -20 -32z"/>
<path d="M570 395 c0 -9 7 -18 15 -21 8 -4 15 -11 15 -16 0 -6 -7 -7 -16 -4
-8 3 -12 2 -9 -4 9 -15 25 -12 32 5 3 9 -3 23 -13 31 -17 14 -17 15 -1 10 9
-3 17 -1 17 4 0 6 -9 10 -20 10 -11 0 -20 -7 -20 -15z"/>
<path d="M1161 396 c-9 -11 -10 -20 -1 -36 15 -28 35 -20 35 15 0 32 -16 42
-34 21z m29 -16 c0 -11 -4 -20 -10 -20 -5 0 -10 9 -10 20 0 11 5 20 10 20 6 0
10 -9 10 -20z"/>
<path d="M1257 404 c-12 -13 -7 -52 7 -57 18 -7 39 17 34 40 -3 18 -29 29 -41
17z m25 -39 c-12 -22 -27 -2 -18 22 5 12 10 13 17 6 7 -7 8 -17 1 -28z"/>
<path d="M1327 404 c-11 -11 -8 -52 3 -59 17 -10 41 16 38 39 -3 21 -28 33
-41 20z m25 -39 c-12 -22 -27 -2 -18 22 5 12 10 13 17 6 7 -7 8 -17 1 -28z"/>
<path d="M1157 224 c-12 -13 -7 -52 7 -57 18 -7 39 17 34 40 -3 18 -29 29 -41
17z m29 -40 c-5 -13 -10 -14 -18 -6 -6 6 -8 18 -4 28 5 13 10 14 18 6 6 -6 8
-18 4 -28z"/>
<path d="M1246 215 c-8 -21 11 -58 27 -52 19 6 15 61 -4 65 -9 2 -19 -4 -23
-13z m34 -15 c0 -11 -4 -20 -10 -20 -5 0 -10 9 -10 20 0 11 5 20 10 20 6 0 10
-9 10 -20z"/>
<path d="M1316 215 c-8 -21 11 -58 27 -52 19 6 15 61 -4 65 -9 2 -19 -4 -23
-13z m34 -15 c0 -11 -4 -20 -10 -20 -5 0 -10 9 -10 20 0 11 5 20 10 20 6 0 10
-9 10 -20z"/>
</g>
</svg>
